<?xml version="1.0" encoding="iso-8859-1"?>
<!-- Uploaded to: SVG Repo, www.svgrepo.com, Generator: SVG Repo Mixer Tools -->
<svg fill="#000000" height="800px" width="800px" version="1.1" id="Layer_1" xmlns="http://www.w3.org/2000/svg" xmlns:xlink="http://www.w3.org/1999/xlink" 
	 viewBox="0 0 512 512" xml:space="preserve">
<g>
	<g>
		<path d="M289.643,45.223h-67.285c-4.355,0-7.885,3.529-7.885,7.885c0,4.356,3.53,7.885,7.885,7.885h67.285
			c4.356,0,7.885-3.529,7.885-7.885C297.528,48.753,293.998,45.223,289.643,45.223z"/>
	</g>
</g>
<g>
	<g>
		<path d="M281.232,83.072h-50.464c-4.355,0-7.885,3.529-7.885,7.885c0,4.356,3.53,7.885,7.885,7.885h50.464
			c4.356,0,7.885-3.53,7.885-7.885C289.117,86.601,285.588,83.072,281.232,83.072z"/>
	</g>
</g>
<g>
	<g>
		<path d="M272.821,120.92h-33.643c-4.355,0-7.885,3.529-7.885,7.885c0,4.356,3.53,7.885,7.885,7.885h33.643
			c4.356,0,7.885-3.529,7.885-7.885C280.706,124.449,277.177,120.92,272.821,120.92z"/>
	</g>
</g>
<g>
	<g>
		<path d="M488.345,28.402H436.83c-4.356,0-7.885,3.529-7.885,7.885v8.936h-75.681l2.655-12.552
			c1.415-6.715-1.098-14.236-5.531-19.309c-4.458-5.101-11.037-8.089-17.811-8.089h-17.701c-4.356,0-7.885,3.529-7.885,7.885
			s3.529,7.885,7.885,7.885h17.701c4.608,0,8.327,4.105,7.843,8.698l-26.408,124.875c-0.766,3.623-4.01,6.253-7.714,6.253H205.704
			c-3.704,0-6.948-2.63-7.714-6.253l-26.41-124.875c-0.484-4.593,3.235-8.699,7.843-8.699h93.397c4.356,0,7.885-3.529,7.885-7.885
			c0-4.356-3.529-7.885-7.885-7.885h-93.396c-6.774,0-13.354,2.988-17.812,8.088c-4.437,5.077-6.94,12.592-5.531,19.31l2.655,12.552
			H83.055v-8.936c0-4.356-3.53-7.885-7.885-7.885H23.655C10.611,28.401,0,39.013,0,52.056v27.335
			c0,13.043,10.611,23.655,23.655,23.655H75.17c4.355,0,7.885-3.529,7.885-7.885v-8.936h84.352l15.153,71.654
			c2.074,9.809,10.207,17.17,19.94,18.518l5.695,64.541c0.36,4.071,3.768,7.192,7.854,7.192h6.834v65.708
			c0,4.356,3.53,7.885,7.885,7.885h0.526v109.865c0,1.161,0.257,2.307,0.751,3.357l16.821,35.745c2.784,5.916,11.485,5.916,14.269,0
			l16.821-35.745c0.494-1.05,0.751-2.196,0.751-3.357v-33.644c0-4.356-3.529-7.885-7.885-7.885c-4.356,0-7.885,3.529-7.885,7.885
			v31.881L256,448.815l-8.936-18.99v-108.1h17.873V364.3c0,4.356,3.529,7.885,7.885,7.885c4.356,0,7.885-3.529,7.885-7.885v-42.576
			h0.526c4.356,0,7.885-3.529,7.885-7.885v-65.708h6.834c4.086,0,7.495-3.121,7.854-7.192l5.695-64.541
			c9.73-1.348,17.864-8.709,19.94-18.518l15.153-71.654h84.352v8.936c0,4.356,3.529,7.885,7.885,7.885h51.515
			c13.043,0,23.655-10.612,23.655-23.655V52.057C512,39.014,501.388,28.402,488.345,28.402z M67.285,87.277h-43.63
			c-4.348,0-7.885-3.537-7.885-7.885V52.057c0-4.348,3.537-7.885,7.885-7.885h43.63V87.277z M83.055,70.456v-9.462h79.016
			l2.001,9.462H83.055z M273.347,305.955h-34.694v-57.823h34.694V305.955z M288.731,232.361h-65.462l-4.916-55.721h75.296
			L288.731,232.361z M428.945,70.456h-81.017l2.001-9.462h79.016V70.456z M496.23,79.392c0,4.348-3.537,7.885-7.885,7.885h-43.63
			V44.172h43.63c4.348,0,7.885,3.537,7.885,7.885V79.392z"/>
	</g>
</g>
<g>
	<g>
		<path d="M161.216,392.94l-11.15-11.151c-3.08-3.079-8.072-3.08-11.151-0.001c-3.079,3.079-3.079,8.072,0,11.15l11.15,11.151
			c3.207,3.207,8.622,2.992,11.57-0.451C164.276,400.553,164.087,395.81,161.216,392.94z"/>
	</g>
</g>
<g>
	<g>
		<path d="M194.668,426.39l-11.15-11.149c-3.079-3.078-8.072-3.078-11.15,0c-3.079,3.08-3.079,8.072,0,11.151l11.15,11.15
			c3.207,3.206,8.622,2.991,11.57-0.453C197.731,434.003,197.539,429.261,194.668,426.39z"/>
	</g>
</g>
<g>
	<g>
		<path d="M228.122,459.846l-11.15-11.151c-3.079-3.08-8.072-3.079-11.151-0.001c-3.079,3.079-3.079,8.072,0,11.15l11.15,11.152
			c1.54,1.54,3.558,2.31,5.576,2.31s4.036-0.77,5.575-2.309C231.201,467.917,231.201,462.924,228.122,459.846z"/>
	</g>
</g>
<g>
	<g>
		<path d="M94.309,326.033l-11.15-11.151c-3.079-3.079-8.072-3.08-11.151-0.001s-3.079,8.072,0,11.15l11.15,11.151
			c3.207,3.207,8.622,2.992,11.57-0.451C97.369,333.646,97.18,328.903,94.309,326.033z"/>
	</g>
</g>
<g>
	<g>
		<path d="M127.761,359.483l-11.15-11.149c-3.079-3.078-8.072-3.078-11.15,0c-3.079,3.08-3.079,8.072,0,11.151l11.15,11.15
			c3.207,3.206,8.622,2.991,11.57-0.453C130.824,367.096,130.633,362.354,127.761,359.483z"/>
	</g>
</g>
<g>
	<g>
		<path d="M439.994,314.881c-3.08-3.079-8.072-3.079-11.153-0.001l-11.151,11.151c-2.87,2.871-3.061,7.613-0.418,10.699
			c2.948,3.444,8.363,3.658,11.571,0.453l11.152-11.151C443.073,322.952,443.073,317.961,439.994,314.881z"/>
	</g>
</g>
<g>
	<g>
		<path d="M373.088,381.788c-3.081-3.079-8.073-3.079-11.153-0.001l-11.151,11.151c-2.87,2.871-3.062,7.613-0.418,10.699
			c2.948,3.444,8.363,3.658,11.571,0.453l11.151-11.151C376.168,389.859,376.168,384.868,373.088,381.788z"/>
	</g>
</g>
<g>
	<g>
		<path d="M406.541,348.335c-3.08-3.078-8.072-3.078-11.153-0.001l-11.15,11.15c-2.87,2.871-3.061,7.613-0.418,10.699
			c2.948,3.444,8.363,3.658,11.571,0.453l11.15-11.15C409.62,356.406,409.62,351.414,406.541,348.335z"/>
	</g>
</g>
<g>
	<g>
		<path d="M306.181,448.694c-3.08-3.078-8.072-3.078-11.153-0.001l-11.151,11.151c-2.87,2.871-3.061,7.613-0.418,10.699
			c2.948,3.444,8.363,3.658,11.571,0.453l11.152-11.151C309.261,456.765,309.261,451.774,306.181,448.694z"/>
	</g>
</g>
<g>
	<g>
		<path d="M339.633,415.241c-3.079-3.078-8.071-3.078-11.151,0l-11.15,11.15c-3.079,3.08-3.079,8.072,0,11.151
			c3.038,3.036,8.113,3.037,11.151,0l11.15-11.15C342.712,423.312,342.712,418.32,339.633,415.241z"/>
	</g>
</g>
<g>
	<g>
		<path d="M272.727,482.148c-3.08-3.078-8.072-3.078-11.151,0L256,487.723l-5.575-5.575c-3.079-3.078-8.072-3.078-11.15,0
			c-3.079,3.08-3.079,8.072,0,11.151l11.15,11.15c3.038,3.037,8.113,3.036,11.151,0l11.15-11.15
			C275.806,490.219,275.806,485.227,272.727,482.148z"/>
	</g>
</g>
</svg>