<!DOCTYPE svg PUBLIC "-//W3C//DTD SVG 1.1//EN" "http://www.w3.org/Graphics/SVG/1.1/DTD/svg11.dtd">
<!-- Uploaded to: SVG Repo, www.svgrepo.com, Transformed by: SVG Repo Mixer Tools -->
<svg height="800px" width="800px" version="1.1" id="Capa_1" xmlns="http://www.w3.org/2000/svg" xmlns:xlink="http://www.w3.org/1999/xlink" viewBox="0 0 448.145 448.145" xml:space="preserve" fill="#000000" stroke="#000000">
<g id="SVGRepo_bgCarrier" stroke-width="0"/>
<g id="SVGRepo_tracerCarrier" stroke-linecap="round" stroke-linejoin="round"/>
<g id="SVGRepo_iconCarrier"> <g> <polygon style="fill:none;" points="68.288,336.184 63.867,382.145 124.541,382.145 120.12,336.184 "/> <path style="fill:#E85512;" d="M84.854,205.894c-1.955-5.165,0.647-10.938,5.813-12.893c5.169-1.955,10.938,0.648,12.892,5.813 c6.166,16.29,16.333,29.015,29.69,37.326c-0.804-44.633-6.615-54.75-39.043-54.75c-35.785,0-39.16,12.319-39.16,69.732 c0,56.022,11.544,65.063,39.16,65.063c6.279,0,11.724-0.471,16.395-1.852c0.834-0.431,1.737-0.753,2.696-0.937 c13.051-5.271,19.24-19.508,19.988-54.657C111.194,248.809,94.021,230.114,84.854,205.894z"/> <path style="fill:#FFFFFF;" d="M338.168,422.145c-5.522,0-10-4.477-10-10v-9.749c-28.792,1.455-45.35,8.941-48.57,12.749 c3.576,4.229,23.599,13,58.57,13s54.995-8.771,58.571-13c-3.22-3.808-19.78-11.294-48.571-12.749v9.749 C348.168,417.668,343.691,422.145,338.168,422.145z"/> <path d="M348.168,382.369v20.027c28.792,1.455,45.351,8.941,48.571,12.749c-3.576,4.229-23.6,13-58.571,13s-54.994-8.771-58.57-13 c3.22-3.808,19.779-11.294,48.57-12.749v-20.027c-35.724,1.603-68.899,11.918-68.899,32.775c0,22.796,39.627,33,78.899,33 s78.9-10.204,78.9-33C417.068,394.287,383.892,383.973,348.168,382.369z"/> <path style="fill:#B4F0DF;" d="M345.811,38.301c0.163,0.192,0.314,0.395,0.462,0.6C346.125,38.696,345.974,38.493,345.811,38.301z"/> <path style="fill:#B4F0DF;" d="M341.944,35.485c1.182,0.485,2.258,1.192,3.172,2.074C344.207,36.68,343.133,35.971,341.944,35.485z "/> <path style="fill:#B4F0DF;" d="M341.044,35.167c0.304,0.092,0.603,0.197,0.896,0.317C341.648,35.365,341.349,35.258,341.044,35.167 z"/> <path style="fill:#B4F0DF;" d="M345.146,37.587c0.201,0.195,0.39,0.403,0.575,0.614C345.537,37.989,345.347,37.783,345.146,37.587z "/> <path style="fill:#B4F0DF;" d="M346.404,39.076c0.131,0.189,0.249,0.387,0.366,0.586C346.653,39.464,346.535,39.266,346.404,39.076 z"/> <path style="fill:#B4F0DF;" d="M338.168,34.742c-0.01,0-0.02,0.001-0.031,0.001c0.143,0,0.283,0.013,0.425,0.018 C338.431,34.757,338.301,34.742,338.168,34.742z"/> <path style="fill:#B4F0DF;" d="M337.105,34.8c0.186-0.02,0.369-0.023,0.553-0.032C337.473,34.777,337.287,34.781,337.105,34.8z"/> <path style="fill:#B4F0DF;" d="M339.144,34.792c0.192,0.019,0.381,0.053,0.57,0.082C339.525,34.844,339.337,34.81,339.144,34.792z"/> <path style="fill:#B4F0DF;" d="M348.111,43.685c0.016,0.155,0.018,0.307,0.027,0.461C348.129,43.992,348.127,43.837,348.111,43.685 z"/> <path style="fill:#B4F0DF;" d="M347.951,42.674c0.046,0.218,0.075,0.442,0.107,0.666C348.027,43.116,347.997,42.892,347.951,42.674 z"/> <path style="fill:#B4F0DF;" d="M347.351,40.785c0.088,0.203,0.161,0.414,0.236,0.624C347.513,41.199,347.439,40.989,347.351,40.785 z"/> <path style="fill:#B4F0DF;" d="M346.919,39.907c0.106,0.191,0.199,0.391,0.293,0.59C347.118,40.298,347.025,40.099,346.919,39.907z "/> <path style="fill:#B4F0DF;" d="M347.696,41.708c0.07,0.219,0.124,0.444,0.179,0.669C347.82,42.152,347.766,41.926,347.696,41.708z"/> <path style="fill:#B4F0DF;" d="M340.112,34.935c0.259,0.052,0.514,0.118,0.767,0.19C340.626,35.053,340.372,34.986,340.112,34.935z "/> <path style="fill:#B4F0DF;" d="M328.168,402.396v9.749c0,5.523,4.478,10,10,10c5.523,0,10-4.477,10-10v-9.749v-20.027V44.742 c0-0.007-0.001-0.013-0.001-0.019c0.015,5.049-3.782,9.4-8.914,9.96c-3.737,0.408-7.433,1.142-11.085,2.155v325.531V402.396z"/> <path style="fill:#FFEBD4;" d="M94.205,138.132c17.53,0,32.322-11.918,36.725-28.076H57.476 C61.88,126.215,76.673,138.132,94.205,138.132z"/> <path style="fill:#6ECCAE;" d="M130.938,90.057C126.535,73.908,111.735,62,94.205,62c-17.531,0-32.333,11.908-36.737,28.057 H130.938z"/> <path style="fill:#E85512;" d="M94.204,42c6.065,0,10.999-4.934,10.999-10.999c0-6.066-4.934-11.001-10.999-11.001 c-6.066,0-11.001,4.935-11.001,11.001C83.203,37.066,88.138,42,94.204,42z"/> <path d="M94.205,158.132c32.018,0,58.066-26.053,58.066-58.076c0-22.732-13.141-42.443-32.221-51.967 c3.252-4.903,5.153-10.777,5.153-17.088C125.203,13.907,111.297,0,94.204,0C77.11,0,63.203,13.907,63.203,31.001 c0,6.312,1.901,12.186,5.153,17.089c-19.08,9.525-32.222,29.235-32.222,51.967C36.135,132.08,62.185,158.132,94.205,158.132z M94.204,20c6.065,0,10.999,4.935,10.999,11.001c0,6.065-4.934,10.999-10.999,10.999c-6.066,0-11.001-4.934-11.001-10.999 C83.203,24.935,88.138,20,94.204,20z M94.205,62c17.53,0,32.33,11.908,36.733,28.057h-73.47C61.872,73.908,76.674,62,94.205,62z M130.93,110.057c-4.403,16.158-19.195,28.076-36.725,28.076c-17.532,0-32.325-11.918-36.729-28.076H130.93z"/> <path d="M348.167,44.723c-0.001-0.191-0.018-0.384-0.029-0.577c-0.009-0.154-0.01-0.306-0.027-0.461 c-0.001-0.009-0.001-0.019-0.002-0.028c-0.012-0.108-0.036-0.211-0.051-0.317c-0.032-0.224-0.061-0.448-0.107-0.666 c-0.021-0.101-0.052-0.197-0.076-0.297c-0.055-0.225-0.109-0.451-0.179-0.669c-0.032-0.102-0.074-0.198-0.109-0.299 c-0.074-0.21-0.148-0.421-0.236-0.624c-0.042-0.098-0.094-0.192-0.139-0.288c-0.094-0.199-0.187-0.399-0.293-0.59 c-0.046-0.084-0.1-0.162-0.149-0.245c-0.118-0.199-0.236-0.397-0.366-0.586c-0.042-0.06-0.088-0.116-0.131-0.175 c-0.148-0.205-0.299-0.408-0.462-0.6c-0.029-0.034-0.061-0.066-0.09-0.099c-0.184-0.212-0.374-0.419-0.575-0.614 c-0.01-0.01-0.02-0.018-0.03-0.028c-0.914-0.882-1.99-1.589-3.172-2.074c-0.001-0.001-0.003-0.001-0.004-0.001 c-0.292-0.12-0.591-0.225-0.896-0.317c-0.054-0.016-0.111-0.027-0.165-0.042c-0.253-0.072-0.507-0.138-0.767-0.19 c-0.131-0.026-0.265-0.04-0.397-0.061c-0.19-0.03-0.378-0.063-0.57-0.082c-0.192-0.019-0.387-0.022-0.582-0.029 c-0.142-0.006-0.282-0.019-0.425-0.018c-0.159,0.001-0.32,0.016-0.48,0.024c-0.184,0.01-0.367,0.012-0.553,0.032 c-0.007,0.001-0.014,0-0.022,0.001c-38.267,4.178-73.67,33.581-99.685,82.795c-18.67,35.319-31.111,78.21-36.299,124.053 c-16.201,5.743-32.672,6.755-47.743,2.976c-0.108-47.015-2.575-83.236-59.151-83.236c-59.16,0-59.16,39.599-59.16,89.732 c0,28,2.815,50.322,12.91,65.063h-6.88c-5.523,0-10,4.477-10,10c0,5.523,4.477,10,10,10h7.12l-5.284,54.931 c0,0.005-0.001,0.011-0.001,0.016l-3.661,38.056c-0.529,5.498,3.499,10.383,8.997,10.912c0.326,0.031,0.648,0.046,0.969,0.046 c5.091,0,9.445-3.872,9.942-9.043l2.785-28.958h64.521l2.785,28.958c0.498,5.172,4.851,9.043,9.942,9.043 c0.32,0,0.644-0.015,0.969-0.046c5.498-0.529,9.525-5.414,8.997-10.912l-3.66-38.053c-0.001-0.007-0.001-0.014-0.002-0.021 l-5.284-54.929h7.119c0.753,0,1.485-0.09,2.191-0.248c11.409,3.399,20.569,9.464,26.845,17.992 c13.332,18.118,13.288,46.131-0.123,78.879c-1.263,3.084-0.907,6.595,0.95,9.362c1.857,2.768,4.971,4.428,8.304,4.428h33.77 c5.523,0,10-4.477,10-10c0-5.523-4.477-10-10-10H199.77c10.71-33.76,8.245-63.405-7.295-84.522 c-11.378-15.463-28.847-25.097-50.529-28.219c7.268-12.047,10.286-28.605,11.142-48.787c6.12,1.212,12.383,1.821,18.723,1.821 c9.046,0,18.248-1.241,27.405-3.703c-0.562,9.016-0.857,18.113-0.857,27.264c0,5.523,4.477,10,10,10c5.523,0,10-4.477,10-10 c0-115.844,48.325-216.559,109.809-233.611c3.652-1.013,7.348-1.747,11.085-2.155C344.385,54.123,348.182,49.772,348.167,44.723z M113.296,313.396c-0.958,0.184-1.862,0.505-2.696,0.937c-4.67,1.381-10.116,1.852-16.395,1.852 c-27.616,0-39.16-9.041-39.16-65.063c0-57.414,3.375-69.732,39.16-69.732c32.428,0,38.239,10.118,39.043,54.75 c-13.358-8.311-23.525-21.036-29.69-37.326c-1.955-5.164-7.724-7.768-12.892-5.813c-5.165,1.955-7.768,7.727-5.813,12.893 c9.168,24.221,26.34,42.915,48.431,52.845C132.536,293.888,126.347,308.125,113.296,313.396z M63.867,382.145l4.421-45.96h51.831 l4.421,45.96H63.867z"/> </g> </g>
</svg>