<?xml version="1.0" encoding="iso-8859-1"?>
<!-- Uploaded to: SVG Repo, www.svgrepo.com, Generator: SVG Repo Mixer Tools -->
<!DOCTYPE svg PUBLIC "-//W3C//DTD SVG 1.1//EN" "http://www.w3.org/Graphics/SVG/1.1/DTD/svg11.dtd">
<svg height="800px" width="800px" version="1.1" id="Capa_1" xmlns="http://www.w3.org/2000/svg" xmlns:xlink="http://www.w3.org/1999/xlink" 
	 viewBox="0 0 466.37 466.37" xml:space="preserve">
<g>
	<path style="fill:#B3E697;" d="M293.943,198.012c0.015-0.079,0.034-0.156,0.051-0.235c3.575-16.233,5.367-28.907,3.39-37.959
		c-1.689-7.733-6.38-15.653-29.063-21.192c-6.594-1.613-12.351-2.431-17.114-2.431c-5.638,0-10.173,1.139-14.052,3.867
		c0.593-0.01,1.184-0.025,1.779-0.027c0.013,0,0.027,0,0.04,0c5.504,0,9.977,4.451,9.999,9.96c0.022,5.523-4.438,10.018-9.96,10.04
		c-5.137,0.02-10.177,0.4-15.084,1.099c-3.263,8.93-6.441,20.679-10.163,35.954c-7.378,30.154-7.911,48.129-1.73,58.293
		c4.021,6.614,11.746,11.114,24.309,14.165c5.528,1.342,10.268,1.995,14.489,1.995c16.043,0,27.56-9.143,38.95-55.877
		C291.321,209.376,292.732,203.492,293.943,198.012z"/>
	<path style="fill:#FFD5A1;" d="M282.763,95.951c1.268,0.126,2.551,0.189,3.815,0.189c19.621,0,35.875-14.762,37.809-34.339
		c2.063-20.883-13.253-39.551-34.141-41.614c-1.255-0.124-2.527-0.187-3.78-0.187c-19.644,0-35.915,14.754-37.847,34.317
		c-1.001,10.132,2.001,20.041,8.454,27.902C263.522,90.075,272.645,94.952,282.763,95.951z"/>
	<path d="M407.229,203.172c-2.968-4.659-9.151-6.028-13.807-3.06c-24.716,15.75-53.725,14.073-78.604-4.223
		c3.217-16.014,4.534-29.223,2.104-40.341c-5.305-24.279-27.571-32.375-43.853-36.351c-8.259-2.021-15.41-3.003-21.863-3.003
		c-21.173,0-33.264,10.789-41.532,27.326c-20.048,4.833-37.783,14.541-50.823,28.192c-16.333,17.099-24.429,38.969-23.413,63.246
		c0.225,5.376,4.653,9.581,9.984,9.581c0.141,0,0.284-0.003,0.426-0.009c5.518-0.231,9.804-4.892,9.573-10.41
		c-0.784-18.716,5.403-35.52,17.892-48.594c7.403-7.75,16.808-13.904,27.5-18.233c-2.297,7.908-4.357,16.35-6.476,25.05
		c-8.701,35.564-8.8,56.644-0.224,71.996c-1.958,17.641-11.255,32.764-24.743,39.919c-15.818,8.392-36.451,5.587-59.662-8.116
		c-2.838-1.675-6.32-1.845-9.307-0.453c-2.988,1.392-5.098,4.166-5.64,7.417l-6.043,36.189c-0.91,5.447,2.769,10.601,8.216,11.51
		c0.558,0.093,1.112,0.138,1.659,0.138c4.798,0,9.035-3.464,9.851-8.354l3.768-22.562c30.658,14.091,52.808,9.179,66.531,1.899
		c15.287-8.11,26.787-22.959,32.247-40.787c5.689,3.283,12.509,5.868,20.636,7.841c7.064,1.715,13.323,2.551,19.134,2.558
		l-14.304,135.784c-0.297,2.819,0.616,5.631,2.513,7.738c1.896,2.106,4.598,3.31,7.432,3.31h30.936c5.523,0,10-4.477,10-10
		c0-5.523-4.477-10-10-10h-19.827l13.82-131.187c19.769-9.495,29.871-33.901,37.884-66.775c0.301-1.229,0.591-2.428,0.882-3.63
		c15.084,9.288,31.419,14.013,47.661,14.013c16.001,0,31.905-4.566,46.414-13.811C408.827,214.012,410.197,207.83,407.229,203.172z
		 M250.833,271.54c-4.221,0-8.961-0.652-14.489-1.995c-12.563-3.05-20.288-7.551-24.309-14.165
		c-6.18-10.164-5.647-28.139,1.73-58.293c3.721-15.275,6.9-27.024,10.163-35.954c4.907-0.699,9.947-1.079,15.084-1.099
		c5.523-0.022,9.982-4.517,9.96-10.04c-0.022-5.509-4.495-9.96-9.999-9.96c-0.014,0-0.027,0-0.04,0
		c-0.595,0.002-1.186,0.017-1.779,0.027c3.879-2.728,8.414-3.867,14.052-3.867c4.763,0,10.52,0.817,17.114,2.431
		c22.684,5.54,27.374,13.46,29.063,21.192c1.978,9.052,0.186,21.727-3.39,37.959c-0.017,0.078-0.035,0.156-0.051,0.235
		c-1.21,5.481-2.622,11.364-4.159,17.652C278.393,262.397,266.877,271.54,250.833,271.54z"/>
	<path d="M280.797,115.854c1.919,0.19,3.863,0.286,5.781,0.286c29.952,0,54.763-22.516,57.712-52.373
		c3.146-31.857-20.216-60.336-52.079-63.483C290.306,0.096,288.373,0,286.466,0c-14.333,0-28.124,5.313-38.832,14.96
		c-10.777,9.709-17.496,22.988-18.919,37.392c-1.526,15.451,3.055,30.564,12.898,42.557
		C251.45,106.891,265.365,114.33,280.797,115.854z M248.619,54.317C250.551,34.754,266.822,20,286.466,20
		c1.253,0,2.524,0.063,3.78,0.187c20.888,2.063,36.204,20.731,34.141,41.614c-1.934,19.576-18.188,34.339-37.809,34.339
		c-1.264,0-2.548-0.064-3.815-0.189c-10.118-0.999-19.241-5.876-25.689-13.732C250.621,74.358,247.618,64.449,248.619,54.317z"/>
	<path d="M306.868,431.436c-5.523,0-10,4.477-10,10c0,2.721-2.214,4.934-4.934,4.934h-55.066c-5.523,0-10,4.477-10,10
		c0,5.523,4.477,10,10,10h55.066c13.749,0,24.934-11.186,24.934-24.934C316.868,435.913,312.391,431.436,306.868,431.436z"/>
	<path d="M81.7,362.91c-1.754-0.293-2.76-1.379-3.204-2.001c-0.443-0.621-1.144-1.925-0.851-3.679l9.069-54.314
		c0.91-5.447-2.769-10.601-8.216-11.51c-5.444-0.91-10.601,2.769-11.51,8.216l-9.069,54.314c-1.097,6.569,0.43,13.173,4.299,18.594
		s9.618,9.01,16.188,10.107c0.558,0.093,1.112,0.138,1.659,0.138c4.798,0,9.035-3.465,9.851-8.354
		C90.826,368.973,87.148,363.819,81.7,362.91z"/>
</g>
</svg>